<svg width="36" height="35" viewBox="0 0 36 35" fill="none" xmlns="http://www.w3.org/2000/svg">
<g opacity="0.8">
<g clip-path="url(#clip0_97_1536)">
<path d="M20.3735 17.5C20.3735 18.6562 19.4363 19.5935 18.28 19.5935C17.1238 19.5935 16.1865 18.6562 16.1865 17.5C16.1865 16.3438 17.1238 15.4065 18.28 15.4065C19.4363 15.4065 20.3735 16.3438 20.3735 17.5Z" fill="#020F59"/>
<path d="M18.2803 6.5625C12.2406 6.5625 7.34277 11.4603 7.34277 17.5C7.34277 23.5397 12.2406 28.4375 18.2803 28.4375C24.32 28.4375 29.2178 23.5397 29.2178 17.5C29.2178 11.4603 24.32 6.5625 18.2803 6.5625ZM24.5229 20.0893C24.4925 20.7579 24.3862 21.2144 24.231 21.6139C23.9047 22.4576 23.2378 23.1245 22.3942 23.4507C21.9948 23.6059 21.5382 23.7121 20.8698 23.7426C20.2 23.7732 19.9861 23.7805 18.2804 23.7805C16.5746 23.7805 16.3608 23.7732 15.6909 23.7426C15.0225 23.7121 14.5659 23.6059 14.1665 23.4507C13.7473 23.293 13.3678 23.0459 13.054 22.7263C12.7346 22.4127 12.4874 22.033 12.3297 21.6139C12.1745 21.2145 12.0682 20.7579 12.0378 20.0895C12.0069 19.4196 11.9998 19.2056 11.9998 17.5C11.9998 15.7944 12.0069 15.5804 12.0376 14.9107C12.068 14.2421 12.1742 13.7856 12.3294 13.3861C12.4871 12.967 12.7344 12.5873 13.054 12.2737C13.3676 11.9541 13.7473 11.707 14.1664 11.5493C14.5659 11.3941 15.0224 11.2879 15.6909 11.2574C16.3607 11.2268 16.5746 11.2195 18.2803 11.2195C19.9859 11.2195 20.1999 11.2268 20.8696 11.2575C21.5382 11.2879 21.9946 11.3941 22.3942 11.5491C22.8133 11.7068 23.1929 11.9541 23.5067 12.2737C23.8261 12.5875 24.0735 12.967 24.231 13.3861C24.3864 13.7856 24.4925 14.2421 24.5231 14.9107C24.5536 15.5804 24.5608 15.7944 24.5608 17.5C24.5608 19.2056 24.5536 19.4196 24.5229 20.0893Z" fill="#020F59"/>
<ellipse cx="21.2881" cy="13.9453" rx="0.820312" ry="0.820312" fill="#020F59"/>
</g>
</g>
<defs>
<clipPath id="clip0_97_1536">
<rect width="21.875" height="21.875" fill="white" transform="translate(7.34277 6.5625)"/>
</clipPath>
</defs>
</svg>
