<svg width="22" height="23" viewBox="0 0 22 23" fill="none" xmlns="http://www.w3.org/2000/svg">
<g clip-path="url(#clip0_6389_243)">
<path d="M13.1177 11.5C13.1177 12.6562 12.1804 13.5935 11.0242 13.5935C9.86794 13.5935 8.93066 12.6562 8.93066 11.5C8.93066 10.3438 9.86794 9.40649 11.0242 9.40649C12.1804 9.40649 13.1177 10.3438 13.1177 11.5Z" fill="#020F59"/>
<path d="M11.0244 0.5625C4.98472 0.5625 0.0869141 5.46031 0.0869141 11.5C0.0869141 17.5397 4.98472 22.4375 11.0244 22.4375C17.0641 22.4375 21.9619 17.5397 21.9619 11.5C21.9619 5.46031 17.0641 0.5625 11.0244 0.5625ZM17.267 14.0893C17.2367 14.7579 17.1304 15.2144 16.9752 15.6139C16.6489 16.4576 15.982 17.1245 15.1383 17.4507C14.739 17.6059 14.2823 17.7121 13.6139 17.7426C12.9442 17.7732 12.7302 17.7805 11.0246 17.7805C9.31877 17.7805 9.10498 17.7732 8.43507 17.7426C7.76666 17.7121 7.31004 17.6059 6.91067 17.4507C6.49143 17.293 6.11192 17.0459 5.79816 16.7263C5.47873 16.4127 5.23156 16.033 5.07384 15.6139C4.91863 15.2145 4.81232 14.7579 4.78195 14.0895C4.75107 13.4196 4.7439 13.2056 4.7439 11.5C4.7439 9.79435 4.75107 9.5804 4.78178 8.91066C4.81216 8.24208 4.9183 7.78563 5.07351 7.38609C5.23122 6.96702 5.47856 6.58734 5.79816 6.27375C6.11175 5.95415 6.49143 5.70698 6.9105 5.54926C7.31004 5.39405 7.7665 5.28791 8.43507 5.25737C9.10481 5.22683 9.31877 5.21948 11.0244 5.21948C12.7301 5.21948 12.944 5.22683 13.6138 5.25753C14.2823 5.28791 14.7388 5.39405 15.1383 5.5491C15.5574 5.70681 15.9371 5.95415 16.2508 6.27375C16.5703 6.5875 16.8176 6.96702 16.9752 7.38609C17.1305 7.78563 17.2367 8.24208 17.2672 8.91066C17.2978 9.5804 17.3049 9.79435 17.3049 11.5C17.3049 13.2056 17.2978 13.4196 17.267 14.0893Z" fill="#020F59"/>
<ellipse cx="14.0322" cy="7.94531" rx="0.820312" ry="0.820312" fill="#020F59"/>
</g>
<defs>
<clipPath id="clip0_6389_243">
<rect width="21.875" height="21.875" fill="white" transform="translate(0.0869141 0.5625)"/>
</clipPath>
</defs>
</svg>
