<svg width="37" height="35" viewBox="0 0 37 35" fill="none" xmlns="http://www.w3.org/2000/svg">
<g opacity="0.8">
<path d="M18.8198 7.00024H18.8144C12.8716 7.00024 8.03906 11.7095 8.03906 17.5002C8.03906 19.7971 8.79891 21.926 10.0909 23.6546L8.74772 27.5553L12.8905 26.2651C14.5948 27.365 16.6278 28.0002 18.8198 28.0002C24.7625 28.0002 29.5951 23.2897 29.5951 17.5002C29.5951 11.7108 24.7625 7.00024 18.8198 7.00024ZM25.0912 21.8276C24.8312 22.5429 23.7992 23.1361 22.976 23.3094C22.4129 23.4262 21.6773 23.5194 19.201 22.5192C16.0336 21.2409 13.9939 18.1053 13.8349 17.9019C13.6827 17.6984 12.555 16.2416 12.555 14.7348C12.555 13.2281 13.3405 12.4944 13.6571 12.1794C13.9171 11.9208 14.3469 11.8027 14.7591 11.8027C14.8925 11.8027 15.0124 11.8092 15.1202 11.8145C15.4368 11.8276 15.5958 11.846 15.8046 12.3329C16.0646 12.9432 16.6978 14.45 16.7733 14.6049C16.8501 14.7597 16.9269 14.9697 16.8191 15.1732C16.718 15.3832 16.6291 15.4764 16.4701 15.6549C16.3112 15.8334 16.1603 15.9699 16.0013 16.1615C15.8558 16.3282 15.6914 16.5067 15.8747 16.8151C16.0579 17.117 16.6911 18.1237 17.6234 18.9322C18.8265 19.9756 19.8019 20.309 20.1508 20.4507C20.4109 20.5557 20.7207 20.5308 20.9107 20.3339C21.1518 20.0806 21.4496 19.6606 21.7527 19.2472C21.9683 18.9506 22.2404 18.9138 22.526 19.0188C22.817 19.1172 24.3569 19.8588 24.6736 20.0124C24.9902 20.1672 25.199 20.2407 25.2758 20.3707C25.3512 20.5006 25.3512 21.1109 25.0912 21.8276Z" fill="#020F59"/>
</g>
</svg>
