<svg width="22" height="21" viewBox="0 0 22 21" fill="none" xmlns="http://www.w3.org/2000/svg">
<path d="M11.2858 0.000244141H11.2806C5.49114 0.000244141 0.783203 4.70949 0.783203 10.5002C0.783203 12.7971 1.52345 14.926 2.78214 16.6546L1.47358 20.5553L5.50952 19.2651C7.16983 20.365 9.15039 21.0002 11.2858 21.0002C17.0753 21.0002 21.7832 16.2897 21.7832 10.5002C21.7832 4.71081 17.0753 0.000244141 11.2858 0.000244141ZM17.3955 14.8276C17.1422 15.5429 16.1368 16.1361 15.3349 16.3094C14.7863 16.4262 14.0696 16.5194 11.6573 15.5192C8.57158 14.2409 6.58445 11.1053 6.42958 10.9019C6.28127 10.6984 5.1827 9.24156 5.1827 7.73481C5.1827 6.22806 5.94789 5.49437 6.25633 5.17937C6.50964 4.92081 6.92833 4.80268 7.32995 4.80268C7.45989 4.80268 7.5767 4.80924 7.6817 4.81449C7.99014 4.82762 8.14502 4.84599 8.34845 5.33293C8.60177 5.94324 9.21864 7.44999 9.29214 7.60487C9.36695 7.75974 9.44177 7.96974 9.33677 8.17318C9.23833 8.38318 9.1517 8.47637 8.99683 8.65487C8.84195 8.83337 8.69495 8.96987 8.54008 9.16149C8.39833 9.32818 8.2382 9.50668 8.4167 9.81512C8.5952 10.117 9.21208 11.1237 10.1203 11.9322C11.2924 12.9756 12.2426 13.309 12.5826 13.4507C12.8359 13.5557 13.1378 13.5308 13.3228 13.3339C13.5578 13.0806 13.8478 12.6606 14.1431 12.2472C14.3531 11.9506 14.6183 11.9138 14.8965 12.0188C15.18 12.1172 16.6802 12.8588 16.9886 13.0124C17.2971 13.1672 17.5005 13.2407 17.5753 13.3707C17.6488 13.5006 17.6488 14.1109 17.3955 14.8276Z" fill="#020F59"/>
</svg>
