<svg width="37" height="35" viewBox="0 0 37 35" fill="none" xmlns="http://www.w3.org/2000/svg">
<g opacity="0.8">
<circle cx="18.5938" cy="17.5" r="10.9375" fill="#020F59"/>
<path d="M25.231 21.0272C25.2136 20.9872 25.1974 20.954 25.1823 20.9274C24.9329 20.4481 24.4565 19.8599 23.7532 19.1626L23.7383 19.1466L23.7309 19.1388L23.7234 19.1307H23.7158C23.3966 18.806 23.1945 18.5877 23.1098 18.4759C22.955 18.2629 22.9203 18.0474 23.0049 17.829C23.0647 17.664 23.2894 17.3155 23.6783 16.7831C23.8829 16.5009 24.0449 16.2748 24.1646 16.1044C25.0276 14.88 25.4018 14.0976 25.287 13.7569L25.2424 13.6772C25.2124 13.6293 25.1351 13.5854 25.0105 13.5455C24.8857 13.5055 24.7261 13.4989 24.5316 13.5255L22.3768 13.5414C22.3418 13.5282 22.292 13.5295 22.2271 13.5455C22.1622 13.5614 22.1297 13.5695 22.1297 13.5695L22.0922 13.5895L22.0625 13.6135C22.0375 13.6294 22.0101 13.6573 21.9801 13.6973C21.9503 13.7371 21.9255 13.7838 21.9055 13.837C21.6709 14.4811 21.4042 15.08 21.1048 15.6336C20.9202 15.9637 20.7507 16.2497 20.596 16.492C20.4413 16.7341 20.3116 16.9125 20.2069 17.0269C20.1021 17.1413 20.0076 17.233 19.9225 17.3023C19.8378 17.3716 19.773 17.4009 19.7281 17.3902C19.6832 17.3795 19.6409 17.3689 19.6008 17.3582C19.531 17.3103 19.4749 17.2451 19.4326 17.1626C19.39 17.0801 19.3614 16.9762 19.3465 16.8511C19.3316 16.726 19.3228 16.6183 19.3203 16.5278C19.3179 16.4373 19.319 16.3094 19.3241 16.1444C19.3293 15.9793 19.3316 15.8676 19.3316 15.8091C19.3316 15.6068 19.3353 15.3872 19.3427 15.1503C19.3502 14.9134 19.3563 14.7257 19.3614 14.5875C19.3665 14.449 19.3689 14.3026 19.3689 14.1482C19.3689 13.9939 19.3601 13.8728 19.3427 13.7849C19.3255 13.6971 19.2992 13.612 19.2644 13.5294C19.2294 13.4469 19.1781 13.383 19.111 13.3377C19.0436 13.2925 18.9599 13.2566 18.8603 13.2299C18.5959 13.166 18.2592 13.1315 17.8501 13.1261C16.9224 13.1155 16.3263 13.1794 16.0619 13.3179C15.9571 13.3763 15.8624 13.4562 15.7776 13.5573C15.6878 13.6745 15.6753 13.7384 15.7401 13.7489C16.0394 13.7968 16.2513 13.9112 16.3761 14.0922L16.421 14.1881C16.456 14.2573 16.4909 14.3798 16.5258 14.5554C16.5607 14.7311 16.5832 14.9254 16.5931 15.1382C16.618 15.5269 16.618 15.8596 16.5931 16.1363C16.5681 16.4132 16.5445 16.6287 16.522 16.7831C16.4995 16.9375 16.4659 17.0626 16.421 17.1584C16.3761 17.2542 16.3462 17.3128 16.3312 17.334C16.3162 17.3553 16.3037 17.3687 16.2938 17.3739C16.229 17.4005 16.1616 17.414 16.0918 17.414C16.0219 17.414 15.9371 17.3767 15.8374 17.3021C15.7377 17.2275 15.6342 17.1251 15.5269 16.9947C15.4196 16.8642 15.2987 16.6819 15.1639 16.4477C15.0293 16.2135 14.8896 15.9367 14.745 15.6173L14.6253 15.3857C14.5505 15.2367 14.4483 15.0197 14.3186 14.735C14.1888 14.4501 14.0741 14.1746 13.9744 13.9084C13.9345 13.7966 13.8746 13.7115 13.7948 13.653L13.7574 13.6289C13.7325 13.6077 13.6925 13.5851 13.6377 13.5611C13.5828 13.537 13.5255 13.5198 13.4656 13.5092L11.4155 13.5251C11.206 13.5251 11.0638 13.5757 10.989 13.6769L10.959 13.7248C10.9441 13.7514 10.9365 13.794 10.9365 13.8526C10.9365 13.9111 10.9515 13.983 10.9814 14.0681C11.2807 14.8188 11.6062 15.5427 11.9578 16.24C12.3095 16.9374 12.615 17.4991 12.8743 17.9247C13.1337 18.3506 13.3981 18.7526 13.6675 19.1304C13.9368 19.5084 14.1152 19.7506 14.2024 19.8571C14.2897 19.9637 14.3583 20.0434 14.4082 20.0966L14.5953 20.2882C14.715 20.416 14.8908 20.569 15.1228 20.7473C15.3548 20.9257 15.6116 21.1013 15.8935 21.2745C16.1753 21.4474 16.5033 21.5884 16.8774 21.6975C17.2515 21.8067 17.6156 21.8506 17.9698 21.8294H18.8303C19.0048 21.8133 19.137 21.7548 19.2269 21.6537L19.2566 21.6137C19.2767 21.5819 19.2954 21.5326 19.3127 21.4661C19.3302 21.3996 19.3389 21.3263 19.3389 21.2466C19.3338 21.0177 19.3501 20.8114 19.3875 20.6278C19.4247 20.4442 19.4672 20.3058 19.5148 20.2126C19.5623 20.1195 19.6159 20.0409 19.6756 19.9772C19.7354 19.9133 19.778 19.8747 19.803 19.8613C19.8278 19.8479 19.8477 19.8389 19.8626 19.8334C19.9823 19.7908 20.1232 19.8321 20.2855 19.9573C20.4477 20.0824 20.5998 20.2368 20.742 20.4204C20.8842 20.6041 21.055 20.8103 21.2544 21.0392C21.4541 21.2681 21.6286 21.4383 21.7782 21.5502L21.9278 21.6461C22.0277 21.71 22.1574 21.7685 22.3171 21.8218C22.4764 21.875 22.616 21.8883 22.7359 21.8617L24.6513 21.8298C24.8408 21.8298 24.9881 21.7963 25.0927 21.7299C25.1975 21.6633 25.2597 21.59 25.2798 21.5104C25.2998 21.4305 25.3009 21.34 25.2836 21.2387C25.2658 21.1377 25.2484 21.0671 25.231 21.0272Z" fill="white"/>
</g>
</svg>
